M48
METRIC,LZ,000.000
;FILE_FORMAT=3:3
;TYPE=PLATED
;Layer: PTH_Through
;EasyEDA v6.5.22, 2023-04-05 19:17:27
;10
;Gerber Generator version 0.2
;Holesize 1 = 0.650 mm
T01C0.650
;Holesize 2 = 0.800 mm
T02C0.800
;Holesize 3 = 0.915 mm
T03C0.915
;Holesize 4 = 1.000 mm
T04C1.000
;Holesize 5 = 1.101 mm
T05C1.101
;Holesize 6 = 1.200 mm
T06C1.200
;Holesize 7 = 1.211 mm
T07C1.211
;Holesize 8 = 1.301 mm
T08C1.301
%
G05
G90
T01
X052452Y022685
X055452Y022685
X058452Y022685
T02
X035540Y035560
X045740Y035560
X045720Y017633
X045720Y027833
X025634Y022606
X035834Y022606
T03
X086490Y007496
X086487Y010033
X086487Y012573
X086487Y015113
X086487Y017653
X086487Y020193
X086487Y022733
X086487Y025273
X086487Y027813
X086487Y030353
X086487Y032893
X086487Y035433
X086487Y037973
X086487Y040513
X086487Y043053
X063627Y043053
X063627Y040513
X063627Y037973
X063627Y035433
X063627Y032893
X063627Y030353
X063627Y027813
X063627Y025273
X063627Y022733
X063627Y020193
X063627Y017653
X063627Y015113
X063627Y012573
X063627Y010033
X063627Y007493
T04
X065913Y063345
X065913Y059845
X028194Y027940
X025654Y027940
X023114Y027940
X094107Y007406
X094107Y012406
X114554Y007406
X114554Y012406
X104013Y007406
X104013Y012406
T05
X111760Y045466
X109220Y045466
X106680Y045466
X104140Y045466
X104013Y063373
X101473Y063373
X098933Y063373
X096393Y063373
T06
X053884Y045356
X053884Y063356
X020284Y051356
X020284Y057356
T07
X028194Y032890G85X028194Y032896
X028194Y035430G85X028194Y035436
X038100Y017656G85X038100Y017650
X038100Y015116G85X038100Y015110
T08
X012573Y056095
X012573Y051093
X012700Y027520
X012700Y022518
X012700Y040474
X012700Y035472
X012827Y015033
X012827Y010032
X012827Y005033
M30
