G04 Layer: TopLayer*
G04 EasyEDA v6.5.22, 2023-04-05 19:17:27*
G04 Gerber Generator version 0.2*
G04 Scale: 100 percent, Rotated: No, Reflected: No *
G04 Dimensions in millimeters *
G04 leading zeros omitted , absolute positions ,4 integer and 5 decimal *
%FSLAX45Y45*%
%MOMM*%

%ADD10C,0.8000*%
%ADD11C,2.0000*%
%ADD12C,1.6000*%
%ADD13R,1.8151X1.8151*%
%ADD14C,1.8151*%
%ADD15C,1.7000*%
%ADD16R,1.7000X1.7000*%
%ADD17R,1.8000X1.8000*%
%ADD18C,1.8000*%
%ADD19C,1.4000*%
%ADD20C,1.5240*%
%ADD21R,1.5240X1.5240*%
%ADD22C,0.6096*%

%LPD*%
D10*
X8407400Y5334000D02*
G01*
X8407400Y5334000D01*
X6616700Y5575300D01*
X6616700Y5080000D02*
G01*
X8407400Y5080000D01*
X8407400Y5092700D01*
X10655300Y3035300D02*
G01*
X10655300Y4305300D01*
X9921984Y2527300D02*
G01*
X9921984Y4559300D01*
X6858000Y266700D02*
G01*
X6858000Y1511300D01*
X2019300Y1503298D02*
G01*
X3276600Y1503298D01*
X5588000Y1511300D02*
G01*
X5588000Y-38100D01*
X8128000Y-38100D02*
G01*
X8128000Y2514600D01*
D11*
G01*
X1257300Y5609462D03*
G01*
X1257300Y5109337D03*
G01*
X1270000Y2751962D03*
G01*
X1270000Y2251837D03*
G01*
X1270000Y4047362D03*
G01*
X1270000Y3547237D03*
D12*
G01*
X6591300Y6334505D03*
G01*
X6591300Y5984494D03*
D13*
G01*
X2819400Y3289300D03*
D14*
G01*
X2819400Y3543300D03*
D13*
G01*
X3810000Y1765300D03*
D14*
G01*
X3810000Y1511300D03*
D15*
G01*
X11176000Y4546600D03*
G01*
X10922000Y4546600D03*
G01*
X10668000Y4546600D03*
D16*
G01*
X10414000Y4546600D03*
D15*
G01*
X10401300Y6337300D03*
G01*
X10147300Y6337300D03*
G01*
X9893300Y6337300D03*
D16*
G01*
X9639300Y6337300D03*
D17*
G01*
X2819400Y2794000D03*
D18*
G01*
X2565400Y2794000D03*
G01*
X2311400Y2794000D03*
D19*
G01*
X3553993Y3556000D03*
G01*
X4574006Y3556000D03*
G01*
X4572000Y1763293D03*
G01*
X4572000Y2783306D03*
G01*
X2563393Y2260600D03*
G01*
X3583406Y2260600D03*
D11*
G01*
X1282700Y1503298D03*
G01*
X1282700Y1003172D03*
G01*
X1282700Y503301D03*
D20*
G01*
X9410700Y740587D03*
G01*
X9410700Y1240586D03*
G01*
X11455400Y740587D03*
G01*
X11455400Y1240586D03*
G01*
X10401300Y740587D03*
G01*
X10401300Y1240586D03*
D15*
G01*
X5245201Y2268499D03*
G01*
X5545200Y2268499D03*
G01*
X5845200Y2268499D03*
D20*
G01*
X8648954Y749554D03*
G01*
X8648700Y1003300D03*
G01*
X8648700Y1257300D03*
G01*
X8648700Y1511300D03*
G01*
X8648700Y1765300D03*
G01*
X8648700Y2019300D03*
G01*
X8648700Y2273300D03*
G01*
X8648700Y2527300D03*
G01*
X8648700Y2781300D03*
G01*
X8648700Y3035300D03*
G01*
X8648700Y3289300D03*
G01*
X8648700Y3543300D03*
G01*
X8648700Y3797300D03*
G01*
X8648700Y4051300D03*
G01*
X8648700Y4305300D03*
D21*
G01*
X6362700Y4305300D03*
D20*
G01*
X6362700Y4051300D03*
G01*
X6362700Y3797300D03*
G01*
X6362700Y3543300D03*
G01*
X6362700Y3289300D03*
G01*
X6362700Y3035300D03*
G01*
X6362700Y2781300D03*
G01*
X6362700Y2527300D03*
G01*
X6362700Y2273300D03*
G01*
X6362700Y2019300D03*
G01*
X6362700Y1765300D03*
G01*
X6362700Y1511300D03*
G01*
X6362700Y1257300D03*
G01*
X6362700Y1003300D03*
G01*
X6362700Y749300D03*
D11*
G01*
X5388406Y4535601D03*
G01*
X5388406Y6335598D03*
G01*
X2028418Y5135600D03*
G01*
X2028418Y5735599D03*
D22*
G01*
X6616700Y5080000D03*
G01*
X8407400Y5092700D03*
G01*
X6858000Y266700D03*
G01*
X6858000Y1511300D03*
G01*
X8407400Y5334000D03*
G01*
X6616700Y5575300D03*
G01*
X9921976Y2527300D03*
G01*
X9921976Y4559300D03*
G01*
X10655300Y3035300D03*
G01*
X10655300Y4305300D03*
G01*
X2019300Y1503298D03*
G01*
X3276600Y1503298D03*
G01*
X5588000Y1511300D03*
G01*
X5588000Y-38100D03*
G01*
X8128000Y-38100D03*
G01*
X8128000Y2514600D03*
M02*
